<svg xmlns="http://www.w3.org/2000/svg" viewBox="0 0 1064.56 552.17"><title>Tap Logo without circle SVG</title><g id="Layer_2" data-name="Layer 2"><g id="Logo"><path d="M336.56,76.25H223.82a9,9,0,0,0-9,9V414.63a9,9,0,0,1-9,9H139.7a9,9,0,0,1-9-9V85.24a9,9,0,0,0-9-9H9a9,9,0,0,1-9-9V9A9,9,0,0,1,9,0H336.56a9,9,0,0,1,9,9V67.26A9,9,0,0,1,336.56,76.25Z"/><path d="M410.74,144.29c27.3,0,50.57,8.42,69,23.27a8.86,8.86,0,0,0,14.55-6.74v-.28a9,9,0,0,1,9-9h54.64a9,9,0,0,1,9,9V412.47a9,9,0,0,1-9,9H503.24a9,9,0,0,1-9-9v-.26a9,9,0,0,0-14.6-7c-18.21,14.5-41.07,22.88-68.31,22.88-75,0-129.5-62.33-129.5-141.61C281.84,206.62,336.3,144.29,410.74,144.29Zm13.92,217.86c38.73,0,67.78-30.26,67.78-75.65s-29.05-75.64-67.78-75.64c-36.92,0-65.36,30.26-65.36,75.64S387.74,362.15,424.66,362.15Z"/><path d="M785.6,428.11c-25.7,0-47.79-7.21-65.44-20.53a9,9,0,0,0-14.44,7.11V543.18a9,9,0,0,1-9,9H639.67a9,9,0,0,1-9-9V160.54a9,9,0,0,1,9-9h54a9,9,0,0,1,9,9v.27c0,7.49,8.73,11.8,14.52,7,18.09-14.86,41.37-23.56,69-23.56,75,0,129.51,62.33,129.51,142.21C915.71,365.78,861.24,428.11,785.6,428.11ZM772.89,210.86c-38.73,0-67.78,29.65-67.78,75.64s29,75.65,67.78,75.65c36.92,0,65.36-29.65,65.36-75.65S809.81,210.86,772.89,210.86Z"/><g id="layer1"><path id="path3055" d="M1012.36,420.39a21.85,21.85,0,0,1-6.35-5.06,24.13,24.13,0,0,1-3.31-7,16.79,16.79,0,0,1-.44-6.67c.35-1.46,2.47-7,4.7-12.25s6-15.65,8.4-23.05,5.42-18.61,6.75-24.88,3.1-16.92,4-23.64a272.08,272.08,0,0,0,1.55-31.29,274.77,274.77,0,0,0-1.52-31.08c-.84-6.6-2.4-16.25-3.45-21.44s-3.24-14.15-4.86-19.91-5.78-17.56-9.26-26.21c-4.68-11.65-6.31-16.86-6.28-20.1a15.46,15.46,0,0,1,2.21-7.88,26.89,26.89,0,0,1,5.48-6,14.86,14.86,0,0,1,8.44-3,30.51,30.51,0,0,1,7.58.19c1.35.33,4.12,2.12,6.15,4,2.69,2.43,4.91,6.1,8.1,13.37,2.41,5.52,6.07,14.91,8.13,20.88s5.23,16.77,7,24,4.19,18.53,5.28,25.08,2.4,17.06,2.93,23.35,1,17.44,1,24.78-.43,18.48-1,24.77-1.85,16.8-2.93,23.35-3.59,18.35-5.59,26.21-5.66,19.87-8.12,26.69-6.26,16-8.44,20.46c-2.67,5.47-5.11,9-7.54,10.9-2.81,2.22-4.76,2.9-9.05,3.18s-6.39-.12-9.56-1.73ZM952.5,394.7c-1.63-.5-4.91-3-7.31-5.56-3.44-3.68-4.49-5.61-5-9.22-.59-3.92-.25-5.58,2.4-11.8,1.7-4,5-12.61,7.24-19.19a223.21,223.21,0,0,0,6.54-23.83c1.32-6.52,2.88-18,3.47-25.52a149.48,149.48,0,0,0,0-26.68c-.59-7.17-2.13-18.29-3.43-24.72s-3.69-15.85-5.32-20.94-4.59-13-6.58-17.59a97.29,97.29,0,0,1-4.27-11.32,18.15,18.15,0,0,1,.52-7.19,19.89,19.89,0,0,1,4.92-7.95,23.08,23.08,0,0,1,7.13-4.86,21.72,21.72,0,0,1,7.68-.63,19.54,19.54,0,0,1,8.22,3.24c2.75,1.92,4.88,4.64,7,9,1.71,3.43,4.84,10.83,6.95,16.45s5.3,15.87,7.06,22.79,4,17.53,4.95,23.55c1.33,8.46,3.08,13.92,3.06,31.93,0,19.91-1.71,27.62-3.58,38.54-1.2,7-3.61,18-5.34,24.3s-4.92,16-7.06,21.5-5.09,12.35-6.54,15.22a22.06,22.06,0,0,1-6.6,8,16,16,0,0,1-8.56,3.1,25.86,25.86,0,0,1-7.55-.6Z"/></g></g></g></svg>