<svg xmlns="http://www.w3.org/2000/svg" viewBox="0 0 1276.14 1276.14"><defs><style>.cls-1{fill:#fff;}</style></defs><title>Tap Logo SVG</title><g id="Layer_2" data-name="Layer 2"><g id="Logo"><circle cx="638.07" cy="638.07" r="638.07"/><path class="cls-1" d="M448.18,428.12H335.45a9,9,0,0,0-9,9V766.5a9,9,0,0,1-9,9H251.33a9,9,0,0,1-9-9V437.11a9,9,0,0,0-9-9H120.61a9,9,0,0,1-9-9V360.86a9,9,0,0,1,9-9H448.18a9,9,0,0,1,9,9v58.27A9,9,0,0,1,448.18,428.12Z"/><path class="cls-1" d="M522.36,496.16c27.3,0,50.58,8.42,69,23.27a8.85,8.85,0,0,0,14.54-6.74v-.28a9,9,0,0,1,9-9h54.65a9,9,0,0,1,9,9V764.34a9,9,0,0,1-9,9H614.86a9,9,0,0,1-9-9v-.26a9,9,0,0,0-14.59-7C573.07,771.6,550.2,780,523,780c-75,0-129.51-62.33-129.51-141.61C393.46,558.49,447.93,496.16,522.36,496.16ZM536.28,714c38.73,0,67.78-30.26,67.78-75.65s-29-75.64-67.78-75.64c-36.91,0-65.36,30.25-65.36,75.64S499.37,714,536.28,714Z"/><path class="cls-1" d="M897.23,780c-25.71,0-47.8-7.21-65.44-20.53a9,9,0,0,0-14.45,7.1v128.5a9,9,0,0,1-9,9H751.29a9,9,0,0,1-9-9V512.41a9,9,0,0,1,9-9h54a9,9,0,0,1,9,9v.27c0,7.49,8.73,11.8,14.51,7,18.09-14.87,41.37-23.56,69-23.56,75,0,129.5,62.33,129.5,142.21C1027.33,717.65,972.87,780,897.23,780ZM884.51,562.73c-38.73,0-67.77,29.65-67.77,75.64s29,75.65,67.77,75.65c36.92,0,65.36-29.65,65.36-75.65S921.43,562.73,884.51,562.73Z"/><g id="layer1"><path id="path3055" class="cls-1" d="M1124,772.26a21.8,21.8,0,0,1-6.34-5.06,24.14,24.14,0,0,1-3.32-7,16.77,16.77,0,0,1-.43-6.67c.35-1.46,2.46-7,4.7-12.25s6-15.65,8.39-23.06,5.42-18.6,6.75-24.87,3.11-16.92,4-23.64a315.51,315.51,0,0,0,0-62.37c-.84-6.61-2.39-16.26-3.45-21.44s-3.24-14.15-4.85-19.92-5.78-17.55-9.26-26.2c-4.69-11.65-6.31-16.86-6.28-20.1a15.42,15.42,0,0,1,2.2-7.89,26.88,26.88,0,0,1,5.49-6,14.83,14.83,0,0,1,8.44-2.95,30.55,30.55,0,0,1,7.58.19c1.35.33,4.11,2.11,6.15,3.95,2.68,2.43,4.9,6.1,8.09,13.37,2.41,5.52,6.07,14.91,8.13,20.88s5.23,16.77,7,24,4.19,18.52,5.27,25.08,2.41,17.06,2.94,23.35,1,17.44,1,24.77-.44,18.49-1,24.78-1.85,16.8-2.93,23.35-3.6,18.35-5.6,26.21-5.65,19.87-8.12,26.69-6.26,16-8.43,20.46c-2.68,5.47-5.12,9-7.54,10.9-2.82,2.22-4.77,2.9-9.06,3.18s-6.39-.13-9.56-1.73Zm-59.85-25.69c-1.63-.5-4.92-3-7.31-5.56-3.44-3.68-4.5-5.61-5-9.22-.59-3.92-.25-5.58,2.4-11.8,1.7-4,5-12.61,7.24-19.19A220.88,220.88,0,0,0,1068,677c1.32-6.52,2.88-18,3.47-25.52a150.56,150.56,0,0,0,0-26.69c-.6-7.16-2.14-18.28-3.44-24.71s-3.69-15.85-5.32-20.94-4.59-13-6.58-17.6a95.93,95.93,0,0,1-4.27-11.32,18.3,18.3,0,0,1,.52-7.18,19.93,19.93,0,0,1,4.92-8,23,23,0,0,1,7.14-4.86,21.63,21.63,0,0,1,7.67-.64,19.6,19.6,0,0,1,8.23,3.25c2.75,1.92,4.88,4.64,7,9,1.7,3.43,4.83,10.83,7,16.44s5.29,15.88,7.06,22.8,4,17.52,4.94,23.55c1.34,8.45,3.09,13.92,3.07,31.93,0,19.91-1.72,27.62-3.58,38.54-1.21,7-3.61,18-5.35,24.3s-4.91,16-7.06,21.5-5.09,12.35-6.53,15.22a22.16,22.16,0,0,1-6.6,8,16,16,0,0,1-8.56,3.1,25.8,25.8,0,0,1-7.55-.6Z"/></g></g></g></svg>